<svg width="220" height="81" viewBox="0 0 220 81" fill="none" xmlns="http://www.w3.org/2000/svg">
<path fill-rule="evenodd" clip-rule="evenodd" d="M98.4731 62.5589H98.691L98.6877 62.5622C102.057 73.3773 111.615 79.9991 123.782 79.9991C140.512 79.9991 152.135 67.9714 152.135 50.2008C152.135 32.4303 140.187 20.0688 122.914 20.0688C114.113 20.0688 105.752 23.2674 99.6667 28.8979V0L89.5651 2.20728V80H99.6667L98.4731 62.5589ZM120.634 29.4498C133.887 29.4498 141.709 37.0662 141.709 50.0885C141.709 63.0017 133.998 70.7272 120.745 70.7272C107.492 70.7272 99.6699 63.1108 99.6699 50.0885C99.6699 37.0662 107.381 29.4498 120.634 29.4498ZM188.17 20.0697C169.701 20.0697 156.122 32.5402 156.122 50.0894C156.122 67.6385 169.918 80 188.17 80C206.422 80 220 67.6385 220 50.0894C220 32.5402 206.64 20.0697 188.17 20.0697ZM188.17 29.4507C201.316 29.4507 209.57 37.9493 209.57 49.9803C209.57 62.1204 201.534 70.7281 188.17 70.7281C174.807 70.7281 166.552 62.0113 166.552 49.9803C166.552 37.9493 175.024 29.4507 188.17 29.4507ZM0 63.7122C0 53.4116 7.71112 46.9845 21.5072 46.9845C29.4362 46.9845 36.6075 48.8682 42.5819 52.5228C43.125 50.4169 43.4502 48.0922 43.4502 45.8768C43.4502 35.2413 37.4758 29.1491 25.7449 29.1491C15.858 29.1491 11.1878 34.1336 12.3846 42.1094L3.15144 43.2171C1.08626 29.1491 10.2121 20.2878 26.3986 20.2878C43.5608 20.2878 53.7729 29.2585 53.7729 45.5452C53.7729 50.3075 52.5793 55.0698 50.5142 59.391C54.534 64.0439 57.5748 69.9138 59.5294 77.2264L51.1646 80.2178C49.8605 75.2333 47.9058 70.9121 45.4081 67.2574C38.9979 75.0111 29.4395 80.2178 19.2274 80.2178C6.51754 80.2178 0 73.794 0 63.7122ZM19.8795 71.3565C27.9184 71.3558 34.7605 66.9253 38.9979 60.6114C34.1097 57.179 28.2427 55.2953 21.2926 55.2953C13.9067 55.2953 10.2121 58.5089 10.2121 63.6028C10.2121 68.2553 13.7955 71.3559 19.8795 71.3565ZM19.8795 71.3565C19.879 71.3565 19.8784 71.3565 19.8778 71.3565H19.8811C19.8806 71.3565 19.8801 71.3565 19.8795 71.3565ZM77.6046 0L67.5031 2.20728V80H77.6046V0Z" fill="black"/>
</svg>
