<svg width="60" height="59" viewBox="0 0 60 59" fill="none" xmlns="http://www.w3.org/2000/svg">
<path d="M0 42.7258C0 32.5909 7.73658 26.2672 21.5782 26.2672C29.5334 26.2672 36.7283 28.1206 42.7225 31.7164C43.2674 29.6444 43.5937 27.357 43.5937 25.1773C43.5937 14.7129 37.5996 8.71875 25.8299 8.71875C15.9104 8.71875 11.2247 13.623 12.4255 21.4706L3.16185 22.5604C1.08984 8.71875 10.2458 0 26.4858 0C43.7046 0 53.9505 8.82643 53.9505 24.851C53.9505 29.5367 52.7529 34.2224 50.6809 38.4741C54.714 43.0521 57.7649 48.8276 59.726 56.0225L51.3335 58.9658C50.0251 54.0615 48.064 49.8098 45.558 46.2139C39.1266 53.8428 29.5367 58.9658 19.2909 58.9658C6.53905 58.9658 0 52.6453 0 42.7258ZM19.9435 50.247C28.0096 50.247 34.875 45.8876 39.1267 39.6749C34.2224 36.2977 28.3359 34.4443 21.3629 34.4443C13.9526 34.4443 10.2458 37.6061 10.2458 42.6181C10.2458 47.1961 13.8417 50.247 19.9467 50.247H19.9435Z" fill="black"/>
</svg>
